<svg id="Layer_5" enable-background="new 0 0 64 64" height="512" viewBox="0 0 64 64" width="512" xmlns="http://www.w3.org/2000/svg"><path d="m52.367 15h2.973v2.001h-2.973z" transform="matrix(.74 -.673 .673 .74 3.241 40.384)"/><path d="m48 29.008-2-.016c.033-4.375 1.844-8.642 4.97-11.706l1.4 1.428c-2.747 2.695-4.341 6.447-4.37 10.294z"/><path d="m46.063 36.835-.415-1.957c2.522-.535 4.352-2.797 4.352-5.378v-.383c0-3.533 1.5-6.923 4.114-9.3l6.471-5.882-9.647-10.522-7.945 7.283c-2.324 2.131-5.34 3.304-8.493 3.304-2.581 0-4.842 1.83-5.378 4.352l-1.956-.416c.73-3.44 3.815-5.936 7.334-5.936 2.651 0 5.188-.986 7.142-2.778l9.42-8.635 12.354 13.478-7.956 7.233c-2.199 1.998-3.46 4.848-3.46 7.819v.383c0 3.52-2.497 6.604-5.937 7.335z"/><path d="m18.5 63c-4.136 0-7.5-3.364-7.5-7.5 0-.73-.251-1.337-.708-1.793-.455-.456-1.061-.707-1.706-.707-4.222 0-7.586-3.364-7.586-7.5s3.364-7.5 7.5-7.5h2.198c1.237 0 2.425-.456 3.345-1.283l6.302-5.673c1.051-.947 1.655-2.301 1.655-3.716v-2.828c0-4.136 3.364-7.5 7.5-7.5s7.5 3.364 7.5 7.5c0 .73.251 1.337.708 1.793.455.456 1.061.707 1.706.707 4.222 0 7.586 3.364 7.586 7.5s-3.364 7.5-7.5 7.5h-2.198c-1.237 0-2.425.456-3.345 1.283l-6.302 5.673c-1.051.947-1.655 2.301-1.655 3.716v2.828c0 4.136-3.364 7.5-7.5 7.5z" fill="#f0bc5e"/><path d="m29.815 41.631-1.338-1.486 1.555-1.392.466.652.813.879-.029.024v.001zm2.935-2.397-1.011-1.727c.631-.369 1.302-.677 1.996-.915l.648 1.893c-.567.195-1.116.447-1.633.749zm3.382-1.159-.258-1.982c.472-.062.952-.093 1.429-.093h.697v2h-.697c-.391 0-.784.025-1.171.075z"/><path d="m17.298 41.8-1.2-1.6c.213-.16.42-.329.62-.51l1.614-1.452 1.338 1.486-1.613 1.452c-.245.22-.498.428-.759.624z"/><path d="m8.943 49.01c-.118-.007-.237-.01-.357-.01-2.011 0-3.586-1.537-3.586-3.5 0-1.93 1.57-3.5 3.5-3.5h2.197c1.353 0 2.71-.312 3.925-.899l.872 1.799c-1.484.719-3.143 1.1-4.797 1.1h-2.197c-.827 0-1.5.673-1.5 1.5 0 .841.697 1.5 1.586 1.5.158 0 .315.005.471.014z"/></svg>